<svg width="164" height="26" viewBox="0 0 164 26" fill="none" xmlns="http://www.w3.org/2000/svg">
<path d="M0 15.1142V9.25753H2.61146C3.2848 9.25753 3.80346 9.40706 4.16742 9.70613C4.53139 9.99965 4.71337 10.4095 4.71337 10.9356C4.71337 11.4507 4.53139 11.8605 4.16742 12.1651C3.80346 12.4642 3.2848 12.6137 2.61146 12.6137H0.755232V15.1142H0ZM0.755232 12.0405H2.53867C3.00576 12.0405 3.3576 11.9436 3.59418 11.7497C3.83682 11.5559 3.95814 11.2845 3.95814 10.9356C3.95814 10.5812 3.83682 10.307 3.59418 10.1132C3.3576 9.91935 3.00576 9.82243 2.53867 9.82243H0.755232V12.0405Z" fill="#C0CCDA"/>
<path d="M7.51507 15.189C7.07831 15.189 6.69614 15.1031 6.36857 14.9315C6.04707 14.7542 5.79836 14.505 5.62244 14.1838C5.44652 13.857 5.35856 13.4721 5.35856 13.0291C5.35856 12.5805 5.44652 12.1956 5.62244 11.8744C5.79836 11.5531 6.04707 11.3067 6.36857 11.135C6.69614 10.9578 7.07831 10.8692 7.51507 10.8692C7.9579 10.8692 8.34006 10.9578 8.66156 11.135C8.98914 11.3067 9.24088 11.5531 9.4168 11.8744C9.59878 12.1956 9.68977 12.5805 9.68977 13.0291C9.68977 13.4721 9.59878 13.857 9.4168 14.1838C9.24088 14.505 8.98914 14.7542 8.66156 14.9315C8.34006 15.1031 7.9579 15.189 7.51507 15.189ZM7.51507 14.6407C7.95183 14.6407 8.2976 14.505 8.55237 14.2336C8.80715 13.9567 8.93454 13.5552 8.93454 13.0291C8.93454 12.4974 8.80412 12.0959 8.54328 11.8245C8.2885 11.5476 7.94576 11.4091 7.51507 11.4091C7.08437 11.4091 6.74164 11.5476 6.48686 11.8245C6.23208 12.0959 6.1047 12.4974 6.1047 13.0291C6.1047 13.5552 6.23208 13.9567 6.48686 14.2336C6.74164 14.505 7.08437 14.6407 7.51507 14.6407Z" fill="#C0CCDA"/>
<path d="M11.996 15.1142L10.3035 10.9439H11.0861L12.4964 14.6158H12.2599L13.7157 10.9439H14.3527L15.7812 14.6158H15.5538L16.9732 10.9439H17.7194L16.0178 15.1142H15.3081L13.834 11.3842H14.198L12.7148 15.1142H11.996Z" fill="#C0CCDA"/>
<path d="M20.6521 15.189C19.9363 15.189 19.3721 15.0007 18.9596 14.6241C18.5471 14.242 18.3409 13.713 18.3409 13.0374C18.3409 12.5999 18.4319 12.2205 18.6139 11.8993C18.7958 11.5725 19.0506 11.3205 19.3782 11.1433C19.7058 10.9605 20.0819 10.8692 20.5065 10.8692C20.9251 10.8692 21.2769 10.9495 21.562 11.1101C21.8471 11.2707 22.0655 11.5005 22.2171 11.7996C22.3688 12.0931 22.4446 12.442 22.4446 12.8463V13.0955H18.905V12.6719H21.9624L21.8077 12.7799C21.8077 12.3368 21.6985 11.9907 21.4801 11.7414C21.2617 11.4922 20.9372 11.3676 20.5065 11.3676C20.0515 11.3676 19.6967 11.5144 19.4419 11.8079C19.1871 12.0959 19.0597 12.4863 19.0597 12.9792V13.054C19.0597 13.5746 19.1992 13.9706 19.4783 14.242C19.7634 14.5078 20.1607 14.6407 20.6703 14.6407C20.9433 14.6407 21.198 14.6047 21.4346 14.5327C21.6773 14.4552 21.9078 14.3306 22.1261 14.1589L22.3809 14.6324C22.1807 14.8096 21.926 14.9481 21.6166 15.0478C21.3133 15.1419 20.9918 15.189 20.6521 15.189Z" fill="#C0CCDA"/>
<path d="M23.5542 15.1142V11.9491C23.5542 11.783 23.5482 11.6141 23.536 11.4424C23.53 11.2707 23.5178 11.1045 23.4996 10.9439H24.2094L24.3004 11.9574L24.173 11.9657C24.2336 11.7165 24.3398 11.5116 24.4914 11.351C24.6431 11.1904 24.822 11.0713 25.0283 10.9938C25.2345 10.9107 25.4499 10.8692 25.6743 10.8692C25.7653 10.8692 25.8442 10.8719 25.9109 10.8775C25.9837 10.883 26.0504 10.8969 26.1111 10.919L26.102 11.5171C26.011 11.4894 25.9261 11.4728 25.8472 11.4673C25.7744 11.4562 25.6895 11.4507 25.5924 11.4507C25.3255 11.4507 25.092 11.5088 24.8918 11.6251C24.6977 11.7414 24.5491 11.891 24.4459 12.0737C24.3489 12.2565 24.3004 12.4503 24.3004 12.6552V15.1142H23.5542Z" fill="#C0CCDA"/>
<path d="M28.8538 15.189C28.138 15.189 27.5738 15.0007 27.1613 14.6241C26.7488 14.242 26.5426 13.713 26.5426 13.0374C26.5426 12.5999 26.6336 12.2205 26.8156 11.8993C26.9975 11.5725 27.2523 11.3205 27.5799 11.1433C27.9075 10.9605 28.2836 10.8692 28.7082 10.8692C29.1268 10.8692 29.4786 10.9495 29.7637 11.1101C30.0488 11.2707 30.2672 11.5005 30.4188 11.7996C30.5705 12.0931 30.6463 12.442 30.6463 12.8463V13.0955H27.1067V12.6719H30.1641L30.0094 12.7799C30.0094 12.3368 29.9002 11.9907 29.6818 11.7414C29.4634 11.4922 29.1389 11.3676 28.7082 11.3676C28.2532 11.3676 27.8984 11.5144 27.6436 11.8079C27.3888 12.0959 27.2614 12.4863 27.2614 12.9792V13.054C27.2614 13.5746 27.4009 13.9706 27.68 14.242C27.9651 14.5078 28.3624 14.6407 28.872 14.6407C29.145 14.6407 29.3997 14.6047 29.6363 14.5327C29.879 14.4552 30.1095 14.3306 30.3278 14.1589L30.5826 14.6324C30.3824 14.8096 30.1277 14.9481 29.8183 15.0478C29.515 15.1419 29.1935 15.189 28.8538 15.189Z" fill="#C0CCDA"/>
<path d="M33.503 15.189C33.1026 15.189 32.7508 15.1031 32.4475 14.9315C32.1441 14.7542 31.9076 14.505 31.7377 14.1838C31.5739 13.8626 31.492 13.4777 31.492 13.0291C31.492 12.5749 31.5739 12.1873 31.7377 11.866C31.9076 11.5448 32.1441 11.2984 32.4475 11.1267C32.7508 10.955 33.1026 10.8692 33.503 10.8692C33.9155 10.8692 34.2703 10.9633 34.5676 11.1516C34.8709 11.3399 35.0741 11.5947 35.1772 11.9159H35.068V9H35.805V15.1142H35.0771V14.1173H35.1772C35.0802 14.4496 34.88 14.7127 34.5767 14.9065C34.2734 15.0948 33.9155 15.189 33.503 15.189ZM33.6576 14.6407C34.0883 14.6407 34.4341 14.505 34.695 14.2336C34.9558 13.9567 35.0862 13.5552 35.0862 13.0291C35.0862 12.4974 34.9558 12.0959 34.695 11.8245C34.4341 11.5476 34.0883 11.4091 33.6576 11.4091C33.227 11.4091 32.8812 11.5476 32.6203 11.8245C32.3656 12.0959 32.2382 12.4974 32.2382 13.0291C32.2382 13.5552 32.3656 13.9567 32.6203 14.2336C32.8812 14.505 33.227 14.6407 33.6576 14.6407Z" fill="#C0CCDA"/>
<path d="M41.8956 15.189C41.4831 15.189 41.1282 15.0948 40.831 14.9065C40.5338 14.7127 40.3336 14.4496 40.2305 14.1173H40.3305V15.1142H39.6026V9H40.3396V11.9159H40.2305C40.3336 11.5947 40.5338 11.3399 40.831 11.1516C41.1282 10.9633 41.4831 10.8692 41.8956 10.8692C42.3081 10.8692 42.663 10.9578 42.9602 11.135C43.2635 11.3067 43.4971 11.5531 43.6608 11.8744C43.8307 12.1956 43.9156 12.5805 43.9156 13.0291C43.9156 13.4777 43.8307 13.8626 43.6608 14.1838C43.491 14.505 43.2544 14.7542 42.9511 14.9315C42.6539 15.1031 42.302 15.189 41.8956 15.189ZM41.7409 14.6407C42.1716 14.6407 42.5174 14.505 42.7782 14.2336C43.0391 13.9623 43.1695 13.5607 43.1695 13.0291C43.1695 12.4974 43.0391 12.0959 42.7782 11.8245C42.5174 11.5476 42.1716 11.4091 41.7409 11.4091C41.3102 11.4091 40.9645 11.5476 40.7036 11.8245C40.4488 12.0959 40.3214 12.4974 40.3214 13.0291C40.3214 13.5552 40.4488 13.9567 40.7036 14.2336C40.9645 14.505 41.3102 14.6407 41.7409 14.6407Z" fill="#C0CCDA"/>
<path d="M44.8144 17L44.6415 16.4434C44.9266 16.3825 45.1632 16.3105 45.3512 16.2274C45.5453 16.1499 45.7061 16.0447 45.8335 15.9117C45.9609 15.7788 46.0701 15.6127 46.1611 15.4133L46.3976 14.9232L46.3794 15.2056L44.3867 10.9439H45.1874L46.8344 14.6075H46.5978L48.2266 10.9439H49L46.889 15.4631C46.7677 15.729 46.6342 15.9505 46.4886 16.1277C46.343 16.3105 46.1853 16.4573 46.0155 16.568C45.8517 16.6843 45.6697 16.7757 45.4695 16.8422C45.2693 16.9086 45.051 16.9612 44.8144 17Z" fill="#C0CCDA"/>
<path fill-rule="evenodd" clip-rule="evenodd" d="M82 13C82 20.1797 76.1797 26 69 26C61.8203 26 56 20.1797 56 13C56 5.8203 61.8203 0 69 0C76.1797 0 82 5.8203 82 13ZM69.3236 21.5258C69.4323 20.9307 69.5374 20.3557 69.6324 19.7808C70.0565 19.7582 70.4626 19.7499 70.8584 19.7418C71.4 19.7307 71.9222 19.72 72.4443 19.6736C73.9507 19.4323 74.9048 18.3602 75.2061 16.6983C75.4822 15.1169 75.1056 14.2591 73.6997 13.2674C73.6871 13.254 73.6808 13.2339 73.6714 13.2037C73.662 13.1736 73.6495 13.1334 73.6243 13.0798C74.9048 12.5169 75.3065 11.3911 75.2563 10.0241C75.181 8.65708 74.3022 7.93338 73.2478 7.4241C73.015 7.31536 72.7653 7.20663 72.5037 7.09268C72.3138 7.01 72.1177 6.92457 71.9171 6.8344C71.9917 6.41335 72.0618 5.9923 72.1312 5.57534C72.2253 5.01021 72.3181 4.4526 72.4192 3.91275C72.1431 3.85915 71.892 3.80554 71.6409 3.75193C71.3899 3.69832 71.1388 3.64471 70.8626 3.5911C70.7748 4.07358 70.6932 4.54935 70.6116 5.02512C70.53 5.5009 70.4484 5.97667 70.3605 6.45915C70.1776 6.42468 70.0085 6.39022 69.8394 6.35576C69.614 6.30981 69.3885 6.26386 69.1303 6.21791C69.2023 5.81134 69.2701 5.40928 69.3372 5.01171C69.4337 4.4395 69.5287 3.87661 69.6324 3.32306C69.0047 3.18904 68.4775 3.08183 67.9 2.97461C67.8415 3.30514 67.7829 3.6327 67.7243 3.96026C67.6072 4.61552 67.49 5.27078 67.3728 5.94987C67.0262 5.87938 66.6877 5.80888 66.3537 5.73934C65.6719 5.59735 65.009 5.45932 64.3349 5.33337C64.2094 5.97667 64.109 6.51275 64.0085 7.12925C64.2183 7.16125 64.4192 7.20279 64.6111 7.24249C64.7407 7.2693 64.8662 7.29526 64.9877 7.31687C65.6656 7.42409 65.9166 7.85296 65.7911 8.54987C65.5902 9.72925 65.3831 10.9086 65.176 12.088C64.9689 13.2674 64.7617 14.4468 64.5609 15.6262C64.4856 16.189 64.2094 16.3231 63.7324 16.2427C62.6277 16.0818 62.6277 16.0818 62.2511 17.1808L62.251 17.1809C62.1757 17.4489 62.1004 17.7169 62 18.0921C62.5398 18.1994 63.0608 18.3066 63.5818 18.4138C64.1027 18.521 64.6237 18.6282 65.1634 18.7354C65.0445 19.3542 64.9432 19.9449 64.8439 20.524C64.7754 20.9232 64.7079 21.3169 64.6362 21.7107C64.9375 21.7777 65.2199 21.8313 65.5024 21.8849C65.7848 21.9385 66.0673 21.9921 66.3685 22.0591C66.4253 21.7388 66.4821 21.4241 66.538 21.1141C66.6552 20.4642 66.7687 19.8349 66.8707 19.2179C67.1289 19.2639 67.3544 19.3098 67.5798 19.3558C67.7489 19.3902 67.918 19.4247 68.1009 19.4592C68.0388 19.8095 67.9799 20.1498 67.9218 20.4848C67.8156 21.0981 67.7124 21.6936 67.5988 22.3004C67.811 22.3416 68.0085 22.3788 68.2011 22.4152C68.5096 22.4734 68.8057 22.5292 69.1303 22.5952C69.1951 22.2292 69.26 21.874 69.3236 21.5258ZM67.6374 15.0277C67.7417 14.4434 67.846 13.8591 67.9503 13.2406C68.253 13.3352 68.5535 13.4228 68.8512 13.5096C69.5659 13.718 70.2644 13.9217 70.9379 14.2055C71.7916 14.5808 72.118 15.3045 71.9673 16.0818C71.8167 16.8055 71.3145 17.3148 70.3856 17.3416C69.6818 17.36 68.9898 17.2906 68.2774 17.2191C67.9478 17.1861 67.6139 17.1526 67.2724 17.1272C67.3941 16.3911 67.5157 15.7094 67.6374 15.0277ZM69.1393 11.7898C68.8431 11.7612 68.5395 11.7319 68.2264 11.7128C68.4524 10.453 68.6281 9.4076 68.829 8.20142C69.1109 8.29263 69.3929 8.37452 69.6718 8.45556C70.2126 8.61267 70.7423 8.76654 71.2392 8.97873C71.9673 9.30038 72.2686 9.97048 72.1431 10.6942C72.0175 11.3911 71.5154 11.8468 70.6869 11.8736C70.1859 11.8908 69.6745 11.8415 69.1393 11.7898Z" fill="#C0CCDA"/>
<path d="M83.6836 5.60215C83.6836 4.18154 84.7381 3.10938 86.37 3.10938C88.0019 3.10938 89.0564 4.12793 89.0564 5.52175C89.0564 6.99597 88.0019 8.09494 86.37 8.09494C84.7632 8.09494 83.6836 7.02277 83.6836 5.60215ZM84.1857 9.56917H88.5794V22.9712H84.1857V9.56917Z" fill="#C0CCDA"/>
<path d="M99.5012 22.435C98.748 22.9443 97.5931 23.2123 96.4382 23.2123C93.2246 23.2123 91.3416 21.5236 91.3416 18.0927V13.5896H89.5088V10.0783H91.3416V6.59375H95.7352V10.0783H98.5974V13.5896H95.7352V18.0391C95.7352 19.0309 96.2625 19.5669 97.0659 19.5669C97.5429 19.5669 98.0451 19.4061 98.3965 19.1381L99.5012 22.435Z" fill="#C0CCDA"/>
<path d="M113.962 15.305V22.971H109.568V16.0823C109.568 14.1524 108.79 13.3483 107.51 13.3483C106.104 13.3483 104.999 14.2864 104.999 16.5112V22.9978H100.605V9.59573H104.798V11.0432C105.802 9.94419 107.208 9.35449 108.79 9.35449C111.702 9.35449 113.962 11.1504 113.962 15.305Z" fill="#C0CCDA"/>
<path d="M115.544 16.2432C115.544 12.2225 118.532 9.35449 122.624 9.35449C126.766 9.35449 129.704 12.2225 129.704 16.2432C129.704 20.2906 126.766 23.1854 122.624 23.1854C118.506 23.1854 115.544 20.3174 115.544 16.2432ZM125.26 16.2432C125.26 14.206 124.13 13.0803 122.624 13.0803C121.143 13.0803 119.988 14.206 119.988 16.2432C119.988 18.3071 121.143 19.4596 122.624 19.4596C124.13 19.4596 125.26 18.3071 125.26 16.2432Z" fill="#C0CCDA"/>
<path d="M144.015 9.56934L138.843 22.9714H134.299L129.127 9.56934H133.646L136.659 17.7446L139.822 9.56934H144.015Z" fill="#C0CCDA"/>
<path d="M143.437 16.2432C143.437 12.2225 146.425 9.35449 150.517 9.35449C154.66 9.35449 157.597 12.2225 157.597 16.2432C157.597 20.2906 154.66 23.1854 150.517 23.1854C146.425 23.1854 143.437 20.3174 143.437 16.2432ZM153.154 16.2432C153.154 14.206 152.024 13.0803 150.517 13.0803C149.036 13.0803 147.881 14.206 147.881 16.2432C147.881 18.3071 149.036 19.4596 150.517 19.4596C152.024 19.4596 153.154 18.3071 153.154 16.2432Z" fill="#C0CCDA"/>
<path d="M161.339 23.1053C162.809 23.1053 164 21.8333 164 20.2641C164 18.6949 162.809 17.4229 161.339 17.4229C159.869 17.4229 158.678 18.6949 158.678 20.2641C158.678 21.8333 159.869 23.1053 161.339 23.1053Z" fill="#C0CCDA"/>
</svg>
