<svg width="18" height="18" viewBox="0 0 18 18" fill="none" xmlns="http://www.w3.org/2000/svg">
<g clip-path="url(#clip0_1_570)">
<path fill-rule="evenodd" clip-rule="evenodd" d="M8.25 7.3125C7.73223 7.3125 7.3125 7.73223 7.3125 8.25V15C7.3125 15.5178 7.73223 15.9375 8.25 15.9375H15C15.5178 15.9375 15.9375 15.5178 15.9375 15V8.25C15.9375 7.73223 15.5178 7.3125 15 7.3125H8.25ZM6.1875 8.25C6.1875 7.11091 7.11091 6.1875 8.25 6.1875H15C16.1391 6.1875 17.0625 7.11091 17.0625 8.25V15C17.0625 16.1391 16.1391 17.0625 15 17.0625H8.25C7.11091 17.0625 6.1875 16.1391 6.1875 15V8.25Z" fill="#0465DD"/>
<path fill-rule="evenodd" clip-rule="evenodd" d="M3 2.0625C2.75136 2.0625 2.5129 2.16127 2.33709 2.33709C2.16127 2.5129 2.0625 2.75136 2.0625 3V9.75C2.0625 9.99864 2.16127 10.2371 2.33709 10.4129C2.5129 10.5887 2.75136 10.6875 3 10.6875H3.75C4.06066 10.6875 4.3125 10.9393 4.3125 11.25C4.3125 11.5607 4.06066 11.8125 3.75 11.8125H3C2.45299 11.8125 1.92839 11.5952 1.54159 11.2084C1.1548 10.8216 0.9375 10.297 0.9375 9.75V3C0.9375 2.45299 1.1548 1.92839 1.54159 1.54159C1.92839 1.1548 2.45299 0.9375 3 0.9375H9.75C10.297 0.9375 10.8216 1.1548 11.2084 1.54159C11.5952 1.92839 11.8125 2.45299 11.8125 3V3.75C11.8125 4.06066 11.5607 4.3125 11.25 4.3125C10.9393 4.3125 10.6875 4.06066 10.6875 3.75V3C10.6875 2.75136 10.5887 2.5129 10.4129 2.33709C10.2371 2.16127 9.99864 2.0625 9.75 2.0625H3Z" fill="#0465DD"/>
</g>
<defs>
<clipPath id="clip0_1_570">
<rect width="18" height="18" fill="white"/>
</clipPath>
</defs>
</svg>
