<svg width="25" height="24" viewBox="0 0 25 24" fill="none" xmlns="http://www.w3.org/2000/svg">
<path opacity="0.4" d="M11.25 2.45009C11.94 1.86009 13.07 1.86009 13.77 2.45009L15.35 3.81009C15.65 4.07009 16.21 4.28009 16.61 4.28009H18.31C19.37 4.28009 20.24 5.15009 20.24 6.21009V7.91009C20.24 8.30009 20.45 8.87009 20.71 9.17009L22.07 10.7501C22.66 11.4401 22.66 12.5701 22.07 13.2701L20.71 14.8501C20.45 15.1501 20.24 15.7101 20.24 16.1101V17.8101C20.24 18.8701 19.37 19.7401 18.31 19.7401H16.61C16.22 19.7401 15.65 19.9501 15.35 20.2101L13.77 21.5701C13.08 22.1601 11.95 22.1601 11.25 21.5701L9.67 20.2101C9.37 19.9501 8.81 19.7401 8.41 19.7401H6.68C5.62 19.7401 4.75 18.8701 4.75 17.8101V16.1001C4.75 15.7101 4.54 15.1501 4.29 14.8501L2.94 13.2601C2.36 12.5701 2.36 11.4501 2.94 10.7601L4.29 9.17009C4.54 8.87009 4.75 8.31009 4.75 7.92009V6.20009C4.75 5.14009 5.62 4.27009 6.68 4.27009H8.41C8.8 4.27009 9.37 4.06009 9.67 3.80009L11.25 2.45009Z" fill="#15BBE0"/>
<path d="M11.2901 15.1701C11.0901 15.1701 10.9001 15.0901 10.7601 14.9501L8.34006 12.5301C8.05006 12.2401 8.05006 11.7601 8.34006 11.4701C8.63006 11.1801 9.11006 11.1801 9.40006 11.4701L11.2901 13.3601L15.5901 9.06009C15.8801 8.77009 16.3601 8.77009 16.6501 9.06009C16.9401 9.35009 16.9401 9.83009 16.6501 10.1201L11.8201 14.9501C11.6801 15.0901 11.4901 15.1701 11.2901 15.1701Z" fill="#15BBE0"/>
</svg>
